<svg width="126" height="22" viewBox="0 0 126 22" fill="none" xmlns="http://www.w3.org/2000/svg">
<g clip-path="url(#clip0_2054_432)">
<g clip-path="url(#clip1_2054_432)">
<path d="M11 1.30198L13.4479 7.18738L13.5652 7.46936L13.8696 7.49377L20.2234 8.00315L15.3825 12.1499L15.1505 12.3486L15.2214 12.6456L16.7004 18.8459L11.2606 15.5233L11 15.3641L10.7394 15.5233L5.29965 18.8459L6.77863 12.6456L6.84949 12.3486L6.61755 12.1499L1.77663 8.00315L8.13042 7.49377L8.43484 7.46936L8.55212 7.18738L11 1.30198Z" fill="#FED84C" stroke="#FED84C"/>
<path d="M37 1.30198L39.4479 7.18738L39.5652 7.46936L39.8696 7.49377L46.2234 8.00315L41.3825 12.1499L41.1505 12.3486L41.2214 12.6456L42.7004 18.8459L37.2606 15.5233L37 15.3641L36.7394 15.5233L31.2996 18.8459L32.7786 12.6456L32.8495 12.3486L32.6175 12.1499L27.7766 8.00315L34.1304 7.49377L34.4348 7.46936L34.5521 7.18738L37 1.30198Z" fill="#FED84C" stroke="#FED84C"/>
<path d="M63 1.30198L65.4479 7.18738L65.5652 7.46936L65.8696 7.49377L72.2234 8.00315L67.3825 12.1499L67.1505 12.3486L67.2214 12.6456L68.7004 18.8459L63.2606 15.5233L63 15.3641L62.7394 15.5233L57.2996 18.8459L58.7786 12.6456L58.8495 12.3486L58.6175 12.1499L53.7766 8.00315L60.1304 7.49377L60.4348 7.46936L60.5521 7.18738L63 1.30198Z" fill="#FED84C" stroke="#FED84C"/>
<path d="M89 1.30198L91.4479 7.18738L91.5652 7.46936L91.8696 7.49377L98.2234 8.00315L93.3825 12.1499L93.1505 12.3486L93.2214 12.6456L94.7004 18.8459L89.2606 15.5233L89 15.3641L88.7394 15.5233L83.2996 18.8459L84.7786 12.6456L84.8495 12.3486L84.6175 12.1499L79.7766 8.00315L86.1304 7.49377L86.4348 7.46936L86.5521 7.18738L89 1.30198Z" fill="#FED84C" stroke="#FED84C"/>
<path d="M115 1.30198L117.448 7.18738L117.565 7.46936L117.87 7.49377L124.223 8.00315L119.382 12.1499L119.151 12.3486L119.221 12.6456L120.7 18.8459L115.261 15.5233L115 15.3641L114.739 15.5233L109.3 18.8459L110.779 12.6456L110.849 12.3486L110.618 12.1499L105.777 8.00315L112.13 7.49377L112.435 7.46936L112.552 7.18738L115 1.30198Z" fill="#FED84C" stroke="#FED84C"/>
</g>
</g>
<defs>
<clipPath id="clip0_2054_432">
<rect width="126" height="22" fill="white"/>
</clipPath>
<clipPath id="clip1_2054_432">
<rect width="126" height="22" fill="white"/>
</clipPath>
</defs>
</svg>
