<svg width="53" height="42" fill="none" xmlns="http://www.w3.org/2000/svg"><path d="M35.993 13.942h4.557a3.536 3.536 0 003.542 3.529 3.536 3.536 0 003.542-3.53l2.312-.166c.974-.07 1.887-.912 1.82-1.882l-.477-4.262a2.355 2.355 0 00-1.772-2.117 22.766 22.766 0 00-1.883-.396c-1.771-.294-5.313-2.647-7.674-3.53-1.21-.451-3.599-.599-5.903-.587-2.192.01-4.306.158-5.313.588-.87.371-2.543 1.744-5.018 4.117-2.951.393-5.017.785-6.198 1.177-1.77.588-2.951 1.765-3.246 2.647-.119.353-.201.813-.249 1.379m24.553 11.017l-.284-2.53a2.355 2.355 0 00-1.771-2.117 22.75 22.75 0 00-1.884-.396c-1.77-.294-5.313-2.647-7.674-3.53-1.21-.452-3.598-.6-5.903-.588-2.191.01-4.305.158-5.312.588-.87.372-2.543 1.744-5.018 4.118-2.952.392-5.018.784-6.198 1.176-1.771.589-2.952 1.765-3.247 2.647-.197.589-.295 1.471-.295 2.647v.294c0 .813.66 1.471 1.476 1.471h2.656c0 1.95 1.586 3.53 3.542 3.53a3.536 3.536 0 003.542-3.53m25.973 11.765A3.536 3.536 0 0041.731 41a3.536 3.536 0 003.541-3.53l2.313-.166c.973-.07 1.887-.912 1.82-1.882l-.477-4.261a2.355 2.355 0 00-1.772-2.118 22.76 22.76 0 00-1.884-.396c-1.77-.294-5.312-2.647-7.673-3.53-1.21-.451-3.599-.599-5.903-.587-2.192.01-4.306.158-5.313.588-.87.371-2.543 1.744-5.018 4.117-2.951.393-5.017.785-6.198 1.177-1.77.588-2.951 1.765-3.247 2.647-.196.588-.295 1.47-.295 2.647V36c0 .812.66 1.47 1.476 1.47h2.656c0 1.95 1.586 3.53 3.542 3.53a3.536 3.536 0 003.542-3.53h15.348z" stroke="#000"/></svg>