<svg width="47" height="42" fill="none" xmlns="http://www.w3.org/2000/svg"><path clip-rule="evenodd" d="M20.106 1h6.588-6.588zM9.565 1h6.588-6.588zm21.082 0h6.588-6.588zM20.106 41h6.588-6.588zM9.565 41h6.588-6.588zm21.082 0h6.588-6.588zM45.8 23.941V18.06v5.882zm0 9.412V27.47v5.882zm0-18.824V8.647v5.882zM1 23.941V18.06v5.882zm0 9.412V27.47v5.882zm0-18.824V8.647v5.882zM5.612 1H1.659S1 1 1 1.588v3.53L5.612 1zm35.576 0h3.953s.659 0 .659.588v3.53L41.188 1zM5.612 41H1.659S1 41 1 40.412v-3.53L5.612 41zm35.576 0h3.953s.659 0 .659-.588v-3.53L41.188 41zM10.223 9.235h26.354v23.53H10.224V9.235z" stroke="#000"/></svg>